<mxfile host="app.diagrams.net" agent="Mozilla/5.0 (Windows NT 10.0; Win64; x64) AppleWebKit/537.36 (KHTML, like Gecko) Chrome/141.0.0.0 Safari/537.36" version="28.2.6">
  <diagram name="PÃ¡gina-1" id="09971dtxfbj2JQxgPZ1k">
    <mxGraphModel dx="2864" dy="2230" grid="1" gridSize="10" guides="1" tooltips="1" connect="1" arrows="1" fold="1" page="1" pageScale="1" pageWidth="827" pageHeight="1169" math="0" shadow="0">
      <root>
        <mxCell id="0" />
        <mxCell id="1" parent="0" />
        <mxCell id="EoKahZUcu5GUu1PDKM8g-47" value="" style="rounded=1;whiteSpace=wrap;html=1;" parent="1" vertex="1">
          <mxGeometry x="-180" y="-450" width="2240" height="1670" as="geometry" />
        </mxCell>
        <mxCell id="EoKahZUcu5GUu1PDKM8g-28" value="" style="aspect=fixed;sketch=0;html=1;dashed=0;whitespace=wrap;verticalLabelPosition=bottom;verticalAlign=top;fillColor=#2875E2;strokeColor=#ffffff;points=[[0.005,0.63,0],[0.1,0.2,0],[0.9,0.2,0],[0.5,0,0],[0.995,0.63,0],[0.72,0.99,0],[0.5,1,0],[0.28,0.99,0]];shape=mxgraph.kubernetes.icon2;prIcon=api" parent="1" vertex="1">
          <mxGeometry x="700" y="45" width="291.66" height="280" as="geometry" />
        </mxCell>
        <mxCell id="EoKahZUcu5GUu1PDKM8g-3" value="&lt;font style=&quot;font-size: 31px;&quot;&gt;PBH API&lt;/font&gt;" style="text;html=1;whiteSpace=wrap;strokeColor=none;fillColor=none;align=center;verticalAlign=middle;rounded=0;fontStyle=1" parent="1" vertex="1">
          <mxGeometry x="760.83" y="255" width="170" height="70" as="geometry" />
        </mxCell>
        <mxCell id="EoKahZUcu5GUu1PDKM8g-4" value="" style="outlineConnect=0;dashed=0;verticalLabelPosition=bottom;verticalAlign=top;align=center;html=1;shape=mxgraph.aws3.management_console;fillColor=#D2D3D3;gradientColor=none;" parent="1" vertex="1">
          <mxGeometry x="-820" y="90" width="220" height="280" as="geometry" />
        </mxCell>
        <mxCell id="EoKahZUcu5GUu1PDKM8g-5" value="&lt;font style=&quot;font-size: 24px;&quot;&gt;Cliente Consumer PBH (Terceiro)&lt;/font&gt;" style="text;html=1;whiteSpace=wrap;strokeColor=none;fillColor=none;align=center;verticalAlign=middle;rounded=0;" parent="1" vertex="1">
          <mxGeometry x="-800" y="110" width="180" height="150" as="geometry" />
        </mxCell>
        <mxCell id="EoKahZUcu5GUu1PDKM8g-7" value="" style="shape=cylinder3;whiteSpace=wrap;html=1;boundedLbl=1;backgroundOutline=1;size=15;" parent="1" vertex="1">
          <mxGeometry x="782.6800000000001" y="-350" width="126.3" height="140" as="geometry" />
        </mxCell>
        <mxCell id="EoKahZUcu5GUu1PDKM8g-8" value="&lt;font style=&quot;font-size: 21px;&quot;&gt;SQLite&lt;br&gt;Database&lt;/font&gt;" style="text;html=1;whiteSpace=wrap;strokeColor=none;fillColor=none;align=center;verticalAlign=middle;rounded=0;fontStyle=1" parent="1" vertex="1">
          <mxGeometry x="778.98" y="-310" width="130" height="70" as="geometry" />
        </mxCell>
        <mxCell id="EoKahZUcu5GUu1PDKM8g-9" value="" style="shape=flexArrow;endArrow=classic;startArrow=classic;html=1;rounded=0;" parent="1" source="EoKahZUcu5GUu1PDKM8g-28" target="EoKahZUcu5GUu1PDKM8g-7" edge="1">
          <mxGeometry width="100" height="100" relative="1" as="geometry">
            <mxPoint x="465.5966176470588" y="30" as="sourcePoint" />
            <mxPoint x="460" y="-70" as="targetPoint" />
          </mxGeometry>
        </mxCell>
        <mxCell id="EoKahZUcu5GUu1PDKM8g-10" value="" style="sketch=0;outlineConnect=0;fontColor=#232F3E;gradientColor=none;fillColor=#232F3D;strokeColor=none;dashed=0;verticalLabelPosition=bottom;verticalAlign=top;align=center;html=1;fontSize=12;fontStyle=0;aspect=fixed;pointerEvents=1;shape=mxgraph.aws4.client;" parent="1" vertex="1">
          <mxGeometry x="840" y="940" width="246.31" height="240" as="geometry" />
        </mxCell>
        <mxCell id="EoKahZUcu5GUu1PDKM8g-11" value="&lt;font style=&quot;font-size: 19px;&quot;&gt;Cliente Resilient Sender&lt;/font&gt;" style="text;html=1;whiteSpace=wrap;strokeColor=none;fillColor=none;align=center;verticalAlign=middle;rounded=0;fontStyle=1" parent="1" vertex="1">
          <mxGeometry x="877.63" y="980" width="172.37" height="100" as="geometry" />
        </mxCell>
        <mxCell id="EoKahZUcu5GUu1PDKM8g-13" value="" style="shape=flexArrow;endArrow=classic;html=1;rounded=0;width=4;endSize=14.64;" parent="1" source="EoKahZUcu5GUu1PDKM8g-10" target="EoKahZUcu5GUu1PDKM8g-23" edge="1">
          <mxGeometry width="50" height="50" relative="1" as="geometry">
            <mxPoint x="390" y="310" as="sourcePoint" />
            <mxPoint x="440" y="260" as="targetPoint" />
          </mxGeometry>
        </mxCell>
        <mxCell id="EoKahZUcu5GUu1PDKM8g-14" value="SUCCESS" style="dashed=0;html=1;rounded=1;strokeColor=#008364;fontSize=12;align=center;fontStyle=1;strokeWidth=2;fontColor=#008364" parent="1" vertex="1">
          <mxGeometry x="787.8299999999999" y="400" width="116" height="70" as="geometry" />
        </mxCell>
        <mxCell id="EoKahZUcu5GUu1PDKM8g-16" value="" style="shape=flexArrow;endArrow=classic;html=1;rounded=0;exitX=0.5;exitY=0;exitDx=0;exitDy=0;entryX=0.5;entryY=1;entryDx=0;entryDy=0;width=10;endSize=3.8571428571428577;entryPerimeter=0;" parent="1" source="EoKahZUcu5GUu1PDKM8g-14" target="EoKahZUcu5GUu1PDKM8g-28" edge="1">
          <mxGeometry width="50" height="50" relative="1" as="geometry">
            <mxPoint x="390" y="200" as="sourcePoint" />
            <mxPoint x="573.9924100000003" y="163.0999999999999" as="targetPoint" />
          </mxGeometry>
        </mxCell>
        <mxCell id="EoKahZUcu5GUu1PDKM8g-20" value="" style="sketch=0;pointerEvents=1;shadow=0;dashed=0;html=1;strokeColor=none;labelPosition=center;verticalLabelPosition=bottom;outlineConnect=0;verticalAlign=top;align=center;shape=mxgraph.office.clouds.cloud_disaster;fillColor=#ff0000;" parent="1" vertex="1">
          <mxGeometry x="1450" y="629.5" width="110" height="86" as="geometry" />
        </mxCell>
        <mxCell id="EoKahZUcu5GUu1PDKM8g-21" value="" style="shape=flexArrow;endArrow=classic;html=1;rounded=0;exitX=1;exitY=0.5;exitDx=0;exitDy=0;exitPerimeter=0;" parent="1" source="EoKahZUcu5GUu1PDKM8g-23" target="EoKahZUcu5GUu1PDKM8g-20" edge="1">
          <mxGeometry width="50" height="50" relative="1" as="geometry">
            <mxPoint x="600" y="648" as="sourcePoint" />
            <mxPoint x="440" y="350" as="targetPoint" />
          </mxGeometry>
        </mxCell>
        <mxCell id="EoKahZUcu5GUu1PDKM8g-23" value="" style="verticalLabelPosition=bottom;verticalAlign=top;html=1;shape=mxgraph.basic.diag_snip_rect;dx=6;whiteSpace=wrap;fillColor=#e3c800;strokeColor=#B09500;fontColor=#000000;" parent="1" vertex="1">
          <mxGeometry x="720" y="600" width="207.55" height="125" as="geometry" />
        </mxCell>
        <mxCell id="EoKahZUcu5GUu1PDKM8g-24" value="&lt;span style=&quot;&quot;&gt;&lt;font style=&quot;font-size: 17px;&quot;&gt;Caso a API esteja disponivel segue o fluxo de sucesso, senao manda para o RabbitMq&lt;/font&gt;&lt;/span&gt;" style="text;html=1;whiteSpace=wrap;align=center;verticalAlign=middle;rounded=0;fontStyle=1;fillColor=#ffcd28;strokeColor=#d79b00;gradientColor=#ffa500;" parent="1" vertex="1">
          <mxGeometry x="728.78" y="607.5" width="190" height="110" as="geometry" />
        </mxCell>
        <mxCell id="EoKahZUcu5GUu1PDKM8g-27" value="" style="shape=flexArrow;endArrow=classic;html=1;rounded=0;entryX=0.5;entryY=1;entryDx=0;entryDy=0;exitX=0.601;exitY=0.032;exitDx=0;exitDy=0;exitPerimeter=0;" parent="1" source="EoKahZUcu5GUu1PDKM8g-24" target="EoKahZUcu5GUu1PDKM8g-14" edge="1">
          <mxGeometry width="50" height="50" relative="1" as="geometry">
            <mxPoint x="467" y="580" as="sourcePoint" />
            <mxPoint x="446" y="500" as="targetPoint" />
          </mxGeometry>
        </mxCell>
        <mxCell id="EoKahZUcu5GUu1PDKM8g-33" value="" style="shape=flexArrow;endArrow=classic;html=1;rounded=0;entryX=0.5;entryY=1;entryDx=0;entryDy=0;" parent="1" source="EoKahZUcu5GUu1PDKM8g-20" target="EoKahZUcu5GUu1PDKM8g-53" edge="1">
          <mxGeometry width="50" height="50" relative="1" as="geometry">
            <mxPoint x="920" y="650" as="sourcePoint" />
            <mxPoint x="1297.1628498727732" y="340" as="targetPoint" />
          </mxGeometry>
        </mxCell>
        <mxCell id="EoKahZUcu5GUu1PDKM8g-41" value="&lt;font style=&quot;font-size: 19px;&quot;&gt;RabbitMq&lt;/font&gt;" style="text;html=1;whiteSpace=wrap;strokeColor=none;fillColor=none;align=center;verticalAlign=middle;rounded=0;fontStyle=1" parent="1" vertex="1">
          <mxGeometry x="1554" y="400" width="100" height="50" as="geometry" />
        </mxCell>
        <mxCell id="EoKahZUcu5GUu1PDKM8g-44" value="" style="shape=mxgraph.signs.healthcare.eye;html=1;pointerEvents=1;fillColor=#000000;strokeColor=none;verticalLabelPosition=bottom;verticalAlign=top;align=center;" parent="1" vertex="1">
          <mxGeometry x="1300" y="-390" width="240" height="140" as="geometry" />
        </mxCell>
        <mxCell id="EoKahZUcu5GUu1PDKM8g-45" value="" style="shape=flexArrow;endArrow=classic;startArrow=classic;html=1;rounded=0;" parent="1" source="EoKahZUcu5GUu1PDKM8g-10" target="EoKahZUcu5GUu1PDKM8g-44" edge="1">
          <mxGeometry width="100" height="100" relative="1" as="geometry">
            <mxPoint x="566.3793727348756" y="973.8452178373282" as="sourcePoint" />
            <mxPoint x="1077.7600000000002" y="960" as="targetPoint" />
          </mxGeometry>
        </mxCell>
        <mxCell id="EoKahZUcu5GUu1PDKM8g-46" value="DataDog" style="text;html=1;whiteSpace=wrap;strokeColor=none;fillColor=none;align=center;verticalAlign=middle;rounded=0;fontStyle=1;fontSize=22;" parent="1" vertex="1">
          <mxGeometry x="1335" y="-430" width="170" height="40" as="geometry" />
        </mxCell>
        <mxCell id="EoKahZUcu5GUu1PDKM8g-53" value="" style="shape=image;html=1;verticalAlign=top;verticalLabelPosition=bottom;labelBackgroundColor=#ffffff;imageAspect=0;aspect=fixed;image=https://icons.diagrams.net/icon-cache1/Animals-2138/icon_animal_coelho-1037.svg" parent="1" vertex="1">
          <mxGeometry x="1430" y="300" width="150" height="150" as="geometry" />
        </mxCell>
        <mxCell id="EoKahZUcu5GUu1PDKM8g-58" value="&lt;font style=&quot;font-size: 23px;&quot;&gt;&lt;b&gt;Consumer RabbitMq&lt;/b&gt;&lt;/font&gt;" style="sketch=0;outlineConnect=0;fontColor=#232F3E;gradientColor=none;strokeColor=#232F3E;fillColor=#ffffff;dashed=0;verticalLabelPosition=bottom;verticalAlign=top;align=center;html=1;fontSize=12;fontStyle=0;aspect=fixed;shape=mxgraph.aws4.resourceIcon;resIcon=mxgraph.aws4.client;" parent="1" vertex="1">
          <mxGeometry x="1750" y="-70" width="210" height="210" as="geometry" />
        </mxCell>
        <mxCell id="EoKahZUcu5GUu1PDKM8g-60" value="" style="shape=flexArrow;endArrow=classic;html=1;rounded=0;" parent="1" source="EoKahZUcu5GUu1PDKM8g-58" target="EoKahZUcu5GUu1PDKM8g-53" edge="1">
          <mxGeometry width="50" height="50" relative="1" as="geometry">
            <mxPoint x="1420" y="240" as="sourcePoint" />
            <mxPoint x="1470" y="190" as="targetPoint" />
          </mxGeometry>
        </mxCell>
        <mxCell id="EoKahZUcu5GUu1PDKM8g-63" value="" style="shape=flexArrow;endArrow=classic;startArrow=classic;html=1;rounded=0;entryX=0.175;entryY=0.825;entryDx=0;entryDy=0;entryPerimeter=0;exitX=0.919;exitY=0.323;exitDx=0;exitDy=0;exitPerimeter=0;" parent="1" source="EoKahZUcu5GUu1PDKM8g-28" target="EoKahZUcu5GUu1PDKM8g-44" edge="1">
          <mxGeometry width="100" height="100" relative="1" as="geometry">
            <mxPoint x="1000" y="40" as="sourcePoint" />
            <mxPoint x="1100" y="-60" as="targetPoint" />
          </mxGeometry>
        </mxCell>
        <mxCell id="EoKahZUcu5GUu1PDKM8g-65" value="" style="shape=flexArrow;endArrow=classic;html=1;rounded=0;" parent="1" source="EoKahZUcu5GUu1PDKM8g-58" target="EoKahZUcu5GUu1PDKM8g-66" edge="1">
          <mxGeometry width="50" height="50" relative="1" as="geometry">
            <mxPoint x="1530" y="80" as="sourcePoint" />
            <mxPoint x="1580" y="30" as="targetPoint" />
          </mxGeometry>
        </mxCell>
        <mxCell id="EoKahZUcu5GUu1PDKM8g-66" value="SUCCESS" style="dashed=0;html=1;rounded=1;strokeColor=#008364;fontSize=12;align=center;fontStyle=1;strokeWidth=2;fontColor=#008364" parent="1" vertex="1">
          <mxGeometry x="1300" y="180" width="116" height="70" as="geometry" />
        </mxCell>
        <mxCell id="EoKahZUcu5GUu1PDKM8g-67" value="" style="shape=flexArrow;endArrow=classic;html=1;rounded=0;exitX=0;exitY=0.5;exitDx=0;exitDy=0;" parent="1" source="EoKahZUcu5GUu1PDKM8g-66" target="EoKahZUcu5GUu1PDKM8g-28" edge="1">
          <mxGeometry width="50" height="50" relative="1" as="geometry">
            <mxPoint x="990" y="380" as="sourcePoint" />
            <mxPoint x="1040" y="330" as="targetPoint" />
          </mxGeometry>
        </mxCell>
        <mxCell id="EoKahZUcu5GUu1PDKM8g-68" value="" style="shape=flexArrow;endArrow=classic;startArrow=classic;html=1;rounded=0;exitX=0.987;exitY=0.567;exitDx=0;exitDy=0;exitPerimeter=0;" parent="1" source="EoKahZUcu5GUu1PDKM8g-44" target="EoKahZUcu5GUu1PDKM8g-58" edge="1">
          <mxGeometry width="100" height="100" relative="1" as="geometry">
            <mxPoint x="1540" y="-80" as="sourcePoint" />
            <mxPoint x="1640" y="-180" as="targetPoint" />
          </mxGeometry>
        </mxCell>
        <mxCell id="jOjOXH8vXY7TolZMxe2I-1" value="" style="points=[];aspect=fixed;html=1;align=center;shadow=0;dashed=0;fillColor=#FF6A00;strokeColor=none;shape=mxgraph.alibaba_cloud.dcdn_dynamic_route_for_cdn;" vertex="1" parent="1">
          <mxGeometry x="140" y="410" width="203.28" height="240" as="geometry" />
        </mxCell>
        <mxCell id="jOjOXH8vXY7TolZMxe2I-2" value="" style="shape=flexArrow;endArrow=classic;startArrow=classic;html=1;rounded=0;" edge="1" parent="1" source="jOjOXH8vXY7TolZMxe2I-1" target="EoKahZUcu5GUu1PDKM8g-28">
          <mxGeometry width="100" height="100" relative="1" as="geometry">
            <mxPoint x="-60" y="270" as="sourcePoint" />
            <mxPoint x="40" y="170" as="targetPoint" />
          </mxGeometry>
        </mxCell>
        <mxCell id="jOjOXH8vXY7TolZMxe2I-3" value="" style="shape=flexArrow;endArrow=classic;startArrow=classic;html=1;rounded=0;exitX=0.978;exitY=0.61;exitDx=0;exitDy=0;exitPerimeter=0;" edge="1" parent="1" source="EoKahZUcu5GUu1PDKM8g-5" target="jOjOXH8vXY7TolZMxe2I-1">
          <mxGeometry width="100" height="100" relative="1" as="geometry">
            <mxPoint x="-30" y="220" as="sourcePoint" />
            <mxPoint x="70" y="120" as="targetPoint" />
          </mxGeometry>
        </mxCell>
        <mxCell id="jOjOXH8vXY7TolZMxe2I-4" value="Sensedia / API Gateway" style="text;html=1;whiteSpace=wrap;strokeColor=none;fillColor=none;align=center;verticalAlign=middle;rounded=0;fontStyle=1;fontSize=19;" vertex="1" parent="1">
          <mxGeometry x="176.64" y="670" width="130" height="90" as="geometry" />
        </mxCell>
      </root>
    </mxGraphModel>
  </diagram>
</mxfile>
